# xmcd CD database file
#
# Track frame offsets:
#       150
#       21751
#       38360
#       56188
#       70548
#       86057
#       103804
#       121160
#       139854
#       161273
#       184526
#       205437
#
# Disc length: 3056 seconds
#
# Revision: 0
# Processed by: cddbd v1.5.2PL0 Copyright (c) Steve Scherf et al.
# Submitted via: jack 3.1.1
#
DISCID=9b0bee0c
DTITLE=M-Riebold and Maxmiles - Ueberbrcken zur Hoffnung
DYEAR=2009
DGENRE=Rap
TTITLE0=Inspiration
TTITLE1=Hoffnung fr Dich
TTITLE2=Nur
TTITLE3=So Schlimm
TTITLE4=Daft Punk
TTITLE5=Stadt der Engel
TTITLE6=Kombination
TTITLE7=Die Groesste Show Auf Erden
TTITLE8=Mr. Rapper feat. Curse
TTITLE9=Rapper Rappen
TTITLE10=Beifahrer Musik
TTITLE11=Wir erinnern uns feat. Trauma
EXTD=
EXTT0=
EXTT1=
EXTT2=
EXTT3=
EXTT4=
EXTT5=
EXTT6=
EXTT7=
EXTT8=
EXTT9=
EXTT10=
EXTT11=
PLAYORDER=
